<?xml version="1.0" encoding="UTF-8"?>
<!-- Generator: Adobe Illustrator 21.0.0, SVG Export Plug-In . SVG Version: 6.00 Build 0)  -->
<svg version="1.1" id="Layer_1" xmlns="http://www.w3.org/2000/svg" xmlns:xlink="http://www.w3.org/1999/xlink" x="0px" y="0px" width="170px" height="297px" viewBox="0 0 170 297" style="enable-background:new 0 0 170 297;" xml:space="preserve">

<title>Berkley-tile-2</title>
<g>
	<path fill="none" stroke="#FAFAFA" stroke-width="12" stroke-linecap="round" stroke-linejoin="round" d="M-1.6,216c5.1,0,10.1,1.3,14.4,3.9l47.9,27.6c8.9,5.2,14.4,14.7,14.5,25V297"/>
	<path fill="none" stroke="#FAFAFA" stroke-width="12" stroke-linecap="round" stroke-linejoin="round" d="M94.4,296.5v-24c0-10.3,5.5-19.8,14.4-25l47.9-27.6c3.8-2.2,8.1-3.5,12.4-3.8"/>
	<path fill="none" stroke="#FAFAFA" stroke-width="12" stroke-linecap="round" stroke-linejoin="round" d="M70.5,228.4l-47.9-27.6c-8.9-5.2-14.4-14.7-14.4-25v-55.3c0-10.3,5.5-19.8,14.4-25l47.9-27.7   c8.9-5.2,20-5.2,28.9,0l47.9,27.6c8.9,5.2,14.4,14.7,14.4,25v55.3c0,10.3-5.5,19.8-14.4,25l-47.9,27.7   C90.4,233.6,79.4,233.6,70.5,228.4z"/>
	<path fill="none" stroke="#FAFAFA" stroke-width="12" stroke-linecap="round" stroke-linejoin="round" d="M75.2,0v23.5c0,10.3-5.5,19.8-14.5,25L12.9,76.2c-4.4,2.5-9.4,3.9-14.5,3.9"/>
	<path fill="none" stroke="#FAFAFA" stroke-width="12" stroke-linecap="round" stroke-linejoin="round" d="M168.7,80c-4.2-0.4-8.3-1.6-12-3.8l-47.9-27.7c-8.9-5.2-14.4-14.7-14.4-25V0"/>
</g>
<rect fill="none" width="170" height="297"/>
</svg>